<svg xmlns="http://www.w3.org/2000/svg"><symbol id="search" viewBox="0 0 24 24">
<svg
  xmlns="http://www.w3.org/2000/svg"
  width="24"
  height="24"
  viewBox="0 0 24 24"
  fill="none"
  stroke="currentColor"
  stroke-width="2"
  stroke-linecap="round"
  stroke-linejoin="round"
>
  <path d="M3 10a7 7 0 1 0 14 0a7 7 0 1 0 -14 0" />
  <path d="M21 21l-6 -6" />
</symbol><symbol id="locate" viewBox="0 0 24 24">
<svg
  xmlns="http://www.w3.org/2000/svg"
  width="24"
  height="24"
  viewBox="0 0 24 24"
  fill="none"
  stroke="currentColor"
  stroke-width="2"
  stroke-linecap="round"
  stroke-linejoin="round"
>
  <path d="M9 12a3 3 0 1 0 6 0a3 3 0 1 0 -6 0" />
  <path d="M4 12a8 8 0 1 0 16 0a8 8 0 1 0 -16 0" />
  <path d="M12 2l0 2" />
  <path d="M12 20l0 2" />
  <path d="M20 12l2 0" />
  <path d="M2 12l2 0" />
</symbol><symbol id="close" viewBox="0 0 24 24">
<svg
  xmlns="http://www.w3.org/2000/svg"
  width="24"
  height="24"
  viewBox="0 0 24 24"
  fill="none"
  stroke="currentColor"
  stroke-width="2"
  stroke-linecap="round"
  stroke-linejoin="round"
>
  <path d="M18 6l-12 12" />
  <path d="M6 6l12 12" />
</symbol><symbol id="plus" viewBox="0 0 24 24">
<svg
  xmlns="http://www.w3.org/2000/svg"
  width="24"
  height="24"
  viewBox="0 0 24 24"
  fill="none"
  stroke="currentColor"
  stroke-width="2"
  stroke-linecap="round"
  stroke-linejoin="round"
>
  <path d="M12 5l0 14" />
  <path d="M5 12l14 0" />
</symbol></svg>